<?xml version="1.0" standalone="no"?>
<!DOCTYPE svg PUBLIC "-//W3C//DTD SVG 20010904//EN"
 "http://www.w3.org/TR/2001/REC-SVG-20010904/DTD/svg10.dtd">
<svg version="1.0" xmlns="http://www.w3.org/2000/svg"
 width="260.000000pt" height="260.000000pt" viewBox="0 0 260.000000 260.000000"
 preserveAspectRatio="xMidYMid meet">
<metadata>
Created by potrace 1.14, written by Peter Selinger 2001-2017
</metadata>
<g transform="translate(0.000000,260.000000) scale(0.100000,-0.100000)"
fill="#000000" stroke="none">
<path d="M1150 2480 c-491 -68 -885 -420 -1004 -895 -40 -157 -43 -361 -10
-525 97 -468 457 -826 934 -927 117 -24 343 -24 460 0 242 52 441 158 610 327
230 230 345 510 345 840 0 157 -16 255 -62 390 -134 391 -475 690 -886 774
-96 20 -299 28 -387 16z m287 -50 c646 -85 1091 -675 988 -1310 -40 -241 -149
-454 -322 -626 -176 -175 -390 -283 -630 -319 -184 -28 -362 -13 -535 45 -300
101 -553 332 -677 617 -191 440 -99 933 235 1267 248 248 601 370 941 326z"/>
</g>
</svg>
